<?xml version="1.0" encoding="utf-8"?>
<!-- Generator: Adobe Illustrator 25.2.0, SVG Export Plug-In . SVG Version: 6.00 Build 0)  -->
<svg version="1.1" id="Layer_1" xmlns="http://www.w3.org/2000/svg" xmlns:xlink="http://www.w3.org/1999/xlink" x="0px" y="0px"
	 viewBox="0 0 230.4 209.8" style="enable-background:new 0 0 230.4 209.8;" xml:space="preserve">
<style type="text/css">
	.st0{fill:#009640;}
</style>
<g>
	<path d="M16.4,38.3v6.7c0,1.2,0.1,2.2,0.4,3.1c0.2,0.9,0.6,1.7,1.1,2.3c0.5,0.6,1.2,1.1,2.1,1.4c0.8,0.3,1.9,0.5,3.1,0.5h9.9v-7.9
		c0-1.6,0.2-3,0.6-4.3c0.4-1.3,1-2.4,1.8-3.3c0.8-0.9,1.8-1.7,3.1-2.2c1.2-0.5,2.7-0.8,4.4-0.8h6.1v18.6h-4.2V37.8h-1.9
		c-1,0-1.9,0.1-2.6,0.4c-0.7,0.3-1.3,0.7-1.7,1.2c-0.4,0.5-0.8,1.2-1,2c-0.2,0.8-0.3,1.8-0.3,2.9v12.3h-14c-1.9,0-3.6-0.3-5-0.9
		c-1.4-0.6-2.5-1.4-3.3-2.5c-0.8-1-1.4-2.3-1.8-3.7c-0.4-1.4-0.6-2.9-0.6-4.5v-6.8H16.4z"/>
	<path d="M51.8,65.6c1.8-0.5,3.5-1.2,4.9-2.2c1.5-1,2.7-2.2,3.8-3.6c1-1.4,1.8-3.1,2.4-5c0.6-1.9,0.9-4,0.9-6.3c0-0.8,0-1.6-0.1-2.4
		c-0.1-0.8-0.2-1.6-0.3-2.3c-0.1-0.8-0.3-1.5-0.5-2.2s-0.4-1.4-0.6-2.1l4-1.2c0.1,0.3,0.2,0.5,0.3,0.9c0.1,0.3,0.2,0.7,0.3,1
		c0.1,0.4,0.2,0.7,0.3,1.1c0.1,0.4,0.2,0.7,0.2,1.1h4.4c1.5,0,2.6-0.4,3.3-1.3c0.7-0.8,1-2.1,1-3.9v-3.2h4.2v13.4
		c0,1.7,0.4,3,1.1,3.8c0.7,0.8,1.9,1.3,3.5,1.3v4.3c-1.3,0-2.5-0.2-3.6-0.5c-1.1-0.4-2-0.9-2.8-1.6c-0.8-0.7-1.3-1.7-1.7-2.8
		c-0.4-1.1-0.6-2.4-0.6-4v-2.9c-0.5,0.5-1.2,0.9-1.8,1.2s-1.5,0.4-2.5,0.4h-3.8c0,0.3,0,0.6,0,0.9c0,0.3,0,0.7,0,1
		c0,2.7-0.3,5.2-1,7.4c-0.7,2.2-1.6,4.2-2.8,5.9s-2.6,3.2-4.3,4.4c-1.7,1.2-3.5,2.1-5.5,2.7L51.8,65.6z M78.4,60.6v5.2h-3.8v-5.2
		H78.4z"/>
	<path d="M109.4,52.3v4.3c-1.1,0-2-0.2-2.7-0.5s-1.3-0.9-1.8-1.7c-0.2,0.4-0.5,0.8-0.8,1.1c-0.3,0.4-0.6,0.7-1,1.1H84.7
		c-0.2,0-0.5,0-0.8-0.1c-0.3-0.1-0.6-0.2-0.8-0.4c-0.3-0.2-0.5-0.4-0.6-0.7s-0.3-0.6-0.3-1v-1.1l2.5-0.9h16.4c0.2-0.3,0.3-0.7,0.4-1
		c0.1-0.4,0.1-0.8,0.1-1.2c0-1-0.2-1.9-0.7-2.9c-0.5-0.9-1.1-1.8-1.8-2.7c-0.8-0.9-1.6-1.7-2.6-2.4c-1-0.7-2-1.5-3-2.1
		c-1-0.7-2.1-1.2-3.1-1.8c-1-0.5-1.9-1-2.8-1.3v-3.4l19.2-13h0.3v4.7l-14.9,9.8c0.9,0.5,1.9,1,2.9,1.5s2,1.2,2.9,1.8
		c1,0.7,1.9,1.4,2.8,2.2c0.9,0.8,1.7,1.6,2.3,2.4c0.7,0.8,1.3,1.7,1.7,2.6c0.5,0.9,0.7,1.9,0.8,2.8c0.1,0.6,0.2,1.2,0.4,1.7
		c0.2,0.5,0.4,0.9,0.7,1.2s0.6,0.6,1,0.7s0.9,0.3,1.4,0.3H109.4z"/>
	<path d="M118.2,21.1v26.5c0,1.5-0.2,2.8-0.7,4c-0.4,1.1-1.1,2.1-1.9,2.8s-1.7,1.3-2.8,1.7c-1.1,0.4-2.3,0.5-3.5,0.5
		c-0.2,0-0.5,0-0.8-0.1c-0.3-0.1-0.6-0.2-0.8-0.4c-0.3-0.2-0.5-0.4-0.6-0.7c-0.2-0.3-0.3-0.6-0.3-1v-1.1l2.5-0.9
		c0.9,0,1.6-0.1,2.2-0.3c0.6-0.2,1.1-0.5,1.4-0.9s0.6-0.9,0.8-1.5c0.2-0.6,0.3-1.3,0.3-2V21.1H118.2z"/>
	<path d="M125.3,56.6V21.1h4.2v35.5H125.3z"/>
</g>
<g>
	<path d="M120.1,137.4c0,6.1-1.2,9.1-3.7,9.1c-0.2,0-0.5-0.1-0.7-0.2c-5.7-4.3-11.1-6.5-16.1-6.6c-10-0.1-20,5.2-29.9,15.9
		c-7.5,9.9-15.1,19.7-22.7,29.6c-8.2,10.5-15.5,15.7-21.7,15.6c-7.3-0.2-10.9-6.7-10.9-19.6c0-4.7,1.3-10.7,4-18
		c2.5-6.9,5.3-12.7,8.4-17.4c0.7-1.1,1.4-1.6,2.1-1.6c0.8,0,1.2,0.5,1.2,1.4c0,0.3-0.1,0.6-0.3,0.9c-4.4,8.1-6.9,16.7-7.4,25.8
		c-0.2,3.1,0.3,5.8,1.5,8.2c1.3,2.8,3.2,4.2,5.7,4.2c5,0,11.9-5.7,20.8-17.1c12.6-16.5,22.7-28,30.2-34.6c2-1.8,5.2-3.9,9.5-6.2
		c5.8-3.2,10.4-4.8,13.9-4.8c3.7,0,7.2,1.4,10.6,4.2C118.3,129.3,120.1,133,120.1,137.4z"/>
	<path d="M179.7,178c-5.4,0-10.4-3.5-15.3-10.6c-2.2-3.1-5-8.5-8.4-16.2c0.1,0.9,0.1,1.8,0.1,2.7c0,8.4-2.3,15.4-7,20.9
		c-5.6,6.6-13.6,9.7-24.1,9.5c-2.8-0.1-5.3-1.3-7.4-3.8c-2.1-2.5-3.2-5.3-3.3-8.5c-0.1-3.8,1.1-8.5,3.7-13.8c0.5-1,1-1.5,1.5-1.6
		c0.6-0.1,0.9,0.3,0.9,1.3c0,4.7,0.2,7.4,0.5,8c0.7,1.5,2.8,2.3,6.4,2.3c6.4,0,12-1.5,16.7-4.5c5.2-3.3,7.9-7.7,7.9-13.2
		c0-1.9-0.7-5.8-2.2-11.8c-1.5-5.9-2.9-10.5-4.3-13.8c-0.2-3.2-0.2-5.7,0-7.6c0.2-2.9,0.8-4.3,1.5-4.3c0.7,0,1.7,1.4,3,4.2
		c3.8,8.9,7.6,17.8,11.3,26.6c6.3,12.5,12.5,18.9,18.6,19.2V178z"/>
	<path d="M195.9,156.6c0,5.9-1.2,11.3-3.5,16.3c-1.6,3.4-5.9,5.1-12.7,5.1v-15c5.6,0,8.7-1.5,9.2-4.4c-0.7-2-2-4.4-4-7.1
		c-1.6-2.2-2.5-4.4-2.8-6.8c0.8-2.6,2.1-6,4.1-10.3c0.2-0.1,0.5-0.2,0.7-0.2c1.7,0,3.4,1.8,5.1,5.3
		C194,143.8,195.3,149.5,195.9,156.6z M173.3,199.9c-1.1,3.7-1.9,5.9-2.3,6.8c-0.5,1.4-1.1,2.4-1.8,3c-0.2,0.1-0.5,0.2-0.8,0.2
		c-1.9,0-4.4-0.6-7.4-1.8c-3.4-1.4-5.1-2.8-5.1-4.3c0-0.4,0.1-0.8,0.5-1.3c0.4-0.7,1.4-2.9,3.1-6.8c1.1-2.6,2.2-3.9,3.4-3.9
		c0.4,0,0.8,0.1,1.3,0.3c2.2,1,4.4,2,6.6,3.1c1.9,1.1,2.8,2.3,2.8,3.6C173.5,199.1,173.4,199.5,173.3,199.9z"/>
</g>
<g>
	<path class="st0" d="M15.2,64.4c2.5,0,4.7,0.2,6.5,0.7c1.9,0.5,3.4,1.2,4.6,2.1c1.2,0.9,2.1,2,2.7,3.3c0.6,1.3,0.9,2.8,0.9,4.4
		c0,1-0.1,1.9-0.4,2.7c-0.3,0.9-0.6,1.7-1.1,2.4s-1,1.5-1.7,2.1c-0.6,0.6-1.3,1.1-2.1,1.6c2.4,1.1,4.1,2.5,5.3,4.2
		c1.2,1.7,1.7,3.8,1.7,6.1c0,1.5-0.3,3-0.9,4.4c-0.6,1.4-1.5,2.7-2.6,3.8s-2.6,2-4.2,2.7c-1.7,0.7-3.5,1-5.6,1h-14V64.4H15.2z
		 M9.5,81.9H19c0.7-0.2,1.4-0.5,2.1-0.9c0.7-0.4,1.3-0.9,1.8-1.4c0.5-0.6,0.9-1.2,1.2-1.9c0.3-0.7,0.5-1.5,0.5-2.3
		c0-4.2-3.1-6.3-9.4-6.3H9.5V81.9z M9.5,101.2h7.3c1.6,0,2.9-0.2,4.1-0.6c1.2-0.4,2.2-0.9,3-1.6s1.4-1.5,1.8-2.4
		c0.4-0.9,0.6-1.9,0.6-3c0-2.6-1-4.5-2.9-5.5s-4.7-1.6-8.4-1.6H9.5V101.2z"/>
	<path class="st0" d="M60.2,105.9h-3.7l-0.6-4.7c-0.5,0.7-1,1.3-1.6,1.9c-0.6,0.6-1.4,1.2-2.2,1.7c-0.8,0.5-1.7,0.9-2.7,1.2
		c-1,0.3-2,0.5-3.1,0.5c-1.4,0-2.7-0.2-3.9-0.7c-1.2-0.5-2.2-1.1-3.1-1.9c-0.9-0.8-1.5-1.8-2-2.9c-0.5-1.1-0.7-2.3-0.7-3.6
		c0-1.9,0.4-3.5,1.2-4.8s1.8-2.5,3.2-3.4s2.8-1.6,4.5-2c1.7-0.5,3.4-0.7,5.2-0.7c0.7,0,1.4,0,2.2,0.1c0.8,0.1,1.6,0.1,2.3,0.2v-0.6
		c0-1.2-0.2-2.2-0.6-3.1s-0.9-1.7-1.6-2.3c-0.7-0.6-1.4-1.1-2.3-1.4c-0.9-0.3-1.9-0.5-2.9-0.5c-1.4,0-2.7,0.2-3.9,0.6
		c-1.3,0.4-2.4,1-3.4,1.7l-2.1-3.5c1.4-1.1,3-1.9,4.8-2.4c1.7-0.6,3.5-0.8,5.4-0.8c1.7,0,3.2,0.3,4.7,0.8c1.4,0.5,2.7,1.3,3.7,2.3
		c1.1,1,1.9,2.2,2.5,3.7c0.6,1.5,0.9,3.2,0.9,5.2V105.9z M55.2,90.7c-0.7-0.1-1.3-0.2-1.9-0.3s-1.2-0.1-1.8-0.1
		c-1.5,0-2.9,0.2-4.1,0.5c-1.2,0.3-2.2,0.8-3.1,1.4c-0.9,0.6-1.5,1.3-2,2.2c-0.5,0.8-0.7,1.8-0.7,2.8c0,0.7,0.1,1.3,0.4,1.9
		s0.6,1.1,1.1,1.6c0.5,0.5,1,0.8,1.7,1.1c0.7,0.3,1.4,0.4,2.1,0.4c0.8,0,1.5-0.1,2.3-0.4c0.8-0.2,1.5-0.6,2.2-1.1
		c0.7-0.5,1.4-1,2-1.7s1.2-1.5,1.7-2.3V90.7z"/>
	<path class="st0" d="M91.4,64.4v41.5h-3.7l-0.6-3.5c-1.2,1.4-2.5,2.4-3.9,3.1c-1.4,0.7-3,1-4.6,1c-1.6,0-3.1-0.3-4.5-1
		c-1.5-0.7-2.7-1.6-3.9-3c-1.1-1.3-2-2.9-2.7-4.8s-1-4.2-1-6.7c0-2.7,0.4-5.1,1.1-7.1s1.7-3.7,2.9-5.1s2.6-2.4,4.2-3.1
		c1.6-0.7,3.2-1,5-1c1.3,0,2.5,0.2,3.7,0.6c1.2,0.4,2.2,1,3.3,1.7V64.4H91.4z M86.4,82.2c-1-1.1-2-1.8-3.1-2.3
		c-1.1-0.5-2.3-0.8-3.4-0.8c-1.1,0-2.2,0.2-3.2,0.7c-1,0.5-1.9,1.2-2.7,2.2c-0.8,1-1.4,2.2-1.9,3.6c-0.5,1.4-0.7,3.1-0.7,5
		c0,1.8,0.2,3.5,0.6,4.9c0.4,1.4,1,2.6,1.7,3.6c0.7,1,1.5,1.7,2.5,2.2c1,0.5,2,0.8,3,0.8c1.3,0,2.5-0.4,3.8-1.1
		c1.3-0.7,2.4-1.8,3.3-3.2L86.4,82.2z"/>
	<path class="st0" d="M104.1,75.3l0.2,2.6c1.2-1.1,2.5-1.9,3.7-2.4c1.3-0.5,2.5-0.8,3.8-0.8c1.3,0,2.4,0.2,3.5,0.7
		c1.1,0.5,2,1.2,2.8,2l-2.5,3.3c-0.6-0.6-1.3-1-2-1.2c-0.8-0.3-1.6-0.4-2.4-0.4c-1.1,0-2.1,0.2-3.2,0.7c-1.1,0.5-2.2,1.2-3.2,2.2
		v23.9h-5V75.3H104.1z"/>
</g>
<g id="XMLID_1_">
	<g>
		<path class="st0" d="M223.4,21.6c0,0.1-0.2,0.7-0.6,1.6c-0.2,0.5-0.4,1.2-0.7,1.9c-0.3,0.7-0.5,1.6-1,2.6
			c-0.9,1.9-1.8,4.2-3.3,6.6c-0.7,1.2-1.4,2.6-2.3,3.9c-0.4,0.7-0.9,1.3-1.4,2c-0.2,0.4-0.5,0.7-0.7,1.1c-0.2,0.4-0.5,0.7-0.8,1
			c-0.5,0.7-1.1,1.4-1.6,2.1c-0.6,0.7-1.1,1.5-1.7,2.2c-0.6,0.7-1.3,1.4-1.9,2.2c-0.6,0.7-1.3,1.5-2,2.2c-2.8,2.9-5.8,5.8-9.2,8.6
			c-0.8,0.7-1.7,1.4-2.5,2.1c-0.8,0.7-1.8,1.4-2.6,2.1c-0.9,0.7-1.8,1.4-2.7,2.1c-0.9,0.7-1.9,1.3-2.8,2c-3.7,2.7-7.7,5.2-11.7,7.6
			c-2,1.2-4,2.3-6,3.5c-2.1,1.1-4.1,2.2-6.1,3.3c-2,1-4.1,2.1-6.1,3c-1,0.5-2,1-3,1.5c-1,0.5-2,0.9-3,1.4c-4,1.8-7.9,3.5-11.6,5
			c-2.4,0.9-4.7,1.8-6.9,2.7c-0.6-11.9,1-51.4,45.1-60c21.2-4.1,36.7-12,46-23.4c3.4-4.1,5.4-8.1,6.6-11.5c0.9,7,1.8,17.8,1.3,29.8
			c-0.6,16.4-4.1,38.5-17.2,51.1c-34,32.8-65.4,24.1-77.4,18.7c1.5-0.7,3.1-1.4,4.7-2.1c3.7-1.7,7.6-3.6,11.5-5.7c1-0.5,2-1,3-1.6
			c1-0.5,2-1.1,3-1.6c2-1.1,4-2.2,6-3.4c2-1.1,4-2.4,6.1-3.6c2-1.3,4-2.5,6-3.8c3.9-2.7,7.8-5.4,11.5-8.3c0.9-0.7,1.8-1.4,2.7-2.2
			c0.9-0.7,1.8-1.5,2.6-2.2c0.9-0.8,1.8-1.5,2.6-2.2c0.8-0.8,1.7-1.5,2.5-2.3c3.3-3,6.2-6.2,8.9-9.2c0.7-0.7,1.3-1.6,1.9-2.3
			c0.6-0.8,1.2-1.5,1.8-2.3c0.6-0.7,1.1-1.5,1.7-2.3c0.5-0.8,1-1.5,1.5-2.2c0.2-0.4,0.5-0.7,0.7-1.1c0.2-0.4,0.4-0.7,0.7-1.1
			c0.4-0.7,0.9-1.4,1.3-2.1c0.9-1.4,1.5-2.8,2.2-4.1c1.4-2.5,2.2-4.9,3-6.8c0.4-0.9,0.6-1.9,0.9-2.6c0.2-0.8,0.4-1.4,0.6-1.9
			C223.2,22.3,223.4,21.7,223.4,21.6z"/>
	</g>
</g>
</svg>
